# Aster Viento High-Definition 3D Model
v -0.8000 0.7100 -0.2500
v 0.8000 0.7100 -0.2500
v 0.8000 0.9900 -0.2500
v -0.8000 0.9900 -0.2500
v 0.8000 0.7100 10.2500
v -0.8000 0.7100 10.2500
v -0.8000 0.9900 10.2500
v 0.8000 0.9900 10.2500
v -1.3000 1.1500 0.1000
v 1.3000 1.1500 0.1000
v 1.3000 4.2500 0.1000
v -1.3000 4.2500 0.1000
v 1.3000 1.1500 9.9000
v -1.3000 1.1500 9.9000
v -1.3000 4.2500 9.9000
v 1.3000 4.2500 9.9000
v -1.3450 1.2250 0.4300
v -1.2950 1.2250 0.4300
v -1.2950 4.1750 0.4300
v -1.3450 4.1750 0.4300
v -1.2950 1.2250 0.5700
v -1.3450 1.2250 0.5700
v -1.3450 4.1750 0.5700
v -1.2950 4.1750 0.5700
v 1.2950 1.2250 0.4300
v 1.3450 1.2250 0.4300
v 1.3450 4.1750 0.4300
v 1.2950 4.1750 0.4300
v 1.3450 1.2250 0.5700
v 1.2950 1.2250 0.5700
v 1.2950 4.1750 0.5700
v 1.3450 4.1750 0.5700
v -1.3450 1.2250 0.7100
v -1.2950 1.2250 0.7100
v -1.2950 4.1750 0.7100
v -1.3450 4.1750 0.7100
v -1.2950 1.2250 0.8500
v -1.3450 1.2250 0.8500
v -1.3450 4.1750 0.8500
v -1.2950 4.1750 0.8500
v 1.2950 1.2250 0.7100
v 1.3450 1.2250 0.7100
v 1.3450 4.1750 0.7100
v 1.2950 4.1750 0.7100
v 1.3450 1.2250 0.8500
v 1.2950 1.2250 0.8500
v 1.2950 4.1750 0.8500
v 1.3450 4.1750 0.8500
v -1.3450 1.2250 0.9900
v -1.2950 1.2250 0.9900
v -1.2950 4.1750 0.9900
v -1.3450 4.1750 0.9900
v -1.2950 1.2250 1.1300
v -1.3450 1.2250 1.1300
v -1.3450 4.1750 1.1300
v -1.2950 4.1750 1.1300
v 1.2950 1.2250 0.9900
v 1.3450 1.2250 0.9900
v 1.3450 4.1750 0.9900
v 1.2950 4.1750 0.9900
v 1.3450 1.2250 1.1300
v 1.2950 1.2250 1.1300
v 1.2950 4.1750 1.1300
v 1.3450 4.1750 1.1300
v -1.3450 1.2250 1.2700
v -1.2950 1.2250 1.2700
v -1.2950 4.1750 1.2700
v -1.3450 4.1750 1.2700
v -1.2950 1.2250 1.4100
v -1.3450 1.2250 1.4100
v -1.3450 4.1750 1.4100
v -1.2950 4.1750 1.4100
v 1.2950 1.2250 1.2700
v 1.3450 1.2250 1.2700
v 1.3450 4.1750 1.2700
v 1.2950 4.1750 1.2700
v 1.3450 1.2250 1.4100
v 1.2950 1.2250 1.4100
v 1.2950 4.1750 1.4100
v 1.3450 4.1750 1.4100
v -1.3450 1.2250 1.5500
v -1.2950 1.2250 1.5500
v -1.2950 4.1750 1.5500
v -1.3450 4.1750 1.5500
v -1.2950 1.2250 1.6900
v -1.3450 1.2250 1.6900
v -1.3450 4.1750 1.6900
v -1.2950 4.1750 1.6900
v 1.2950 1.2250 1.5500
v 1.3450 1.2250 1.5500
v 1.3450 4.1750 1.5500
v 1.2950 4.1750 1.5500
v 1.3450 1.2250 1.6900
v 1.2950 1.2250 1.6900
v 1.2950 4.1750 1.6900
v 1.3450 4.1750 1.6900
v -1.3450 1.2250 1.8300
v -1.2950 1.2250 1.8300
v -1.2950 4.1750 1.8300
v -1.3450 4.1750 1.8300
v -1.2950 1.2250 1.9700
v -1.3450 1.2250 1.9700
v -1.3450 4.1750 1.9700
v -1.2950 4.1750 1.9700
v 1.2950 1.2250 1.8300
v 1.3450 1.2250 1.8300
v 1.3450 4.1750 1.8300
v 1.2950 4.1750 1.8300
v 1.3450 1.2250 1.9700
v 1.2950 1.2250 1.9700
v 1.2950 4.1750 1.9700
v 1.3450 4.1750 1.9700
v -1.3450 1.2250 2.1100
v -1.2950 1.2250 2.1100
v -1.2950 4.1750 2.1100
v -1.3450 4.1750 2.1100
v -1.2950 1.2250 2.2500
v -1.3450 1.2250 2.2500
v -1.3450 4.1750 2.2500
v -1.2950 4.1750 2.2500
v 1.2950 1.2250 2.1100
v 1.3450 1.2250 2.1100
v 1.3450 4.1750 2.1100
v 1.2950 4.1750 2.1100
v 1.3450 1.2250 2.2500
v 1.2950 1.2250 2.2500
v 1.2950 4.1750 2.2500
v 1.3450 4.1750 2.2500
v -1.3450 1.2250 2.3900
v -1.2950 1.2250 2.3900
v -1.2950 4.1750 2.3900
v -1.3450 4.1750 2.3900
v -1.2950 1.2250 2.5300
v -1.3450 1.2250 2.5300
v -1.3450 4.1750 2.5300
v -1.2950 4.1750 2.5300
v 1.2950 1.2250 2.3900
v 1.3450 1.2250 2.3900
v 1.3450 4.1750 2.3900
v 1.2950 4.1750 2.3900
v 1.3450 1.2250 2.5300
v 1.2950 1.2250 2.5300
v 1.2950 4.1750 2.5300
v 1.3450 4.1750 2.5300
v -1.3450 1.2250 2.6700
v -1.2950 1.2250 2.6700
v -1.2950 4.1750 2.6700
v -1.3450 4.1750 2.6700
v -1.2950 1.2250 2.8100
v -1.3450 1.2250 2.8100
v -1.3450 4.1750 2.8100
v -1.2950 4.1750 2.8100
v 1.2950 1.2250 2.6700
v 1.3450 1.2250 2.6700
v 1.3450 4.1750 2.6700
v 1.2950 4.1750 2.6700
v 1.3450 1.2250 2.8100
v 1.2950 1.2250 2.8100
v 1.2950 4.1750 2.8100
v 1.3450 4.1750 2.8100
v -1.3450 1.2250 2.9500
v -1.2950 1.2250 2.9500
v -1.2950 4.1750 2.9500
v -1.3450 4.1750 2.9500
v -1.2950 1.2250 3.0900
v -1.3450 1.2250 3.0900
v -1.3450 4.1750 3.0900
v -1.2950 4.1750 3.0900
v 1.2950 1.2250 2.9500
v 1.3450 1.2250 2.9500
v 1.3450 4.1750 2.9500
v 1.2950 4.1750 2.9500
v 1.3450 1.2250 3.0900
v 1.2950 1.2250 3.0900
v 1.2950 4.1750 3.0900
v 1.3450 4.1750 3.0900
v -1.3450 1.2250 3.2300
v -1.2950 1.2250 3.2300
v -1.2950 4.1750 3.2300
v -1.3450 4.1750 3.2300
v -1.2950 1.2250 3.3700
v -1.3450 1.2250 3.3700
v -1.3450 4.1750 3.3700
v -1.2950 4.1750 3.3700
v 1.2950 1.2250 3.2300
v 1.3450 1.2250 3.2300
v 1.3450 4.1750 3.2300
v 1.2950 4.1750 3.2300
v 1.3450 1.2250 3.3700
v 1.2950 1.2250 3.3700
v 1.2950 4.1750 3.3700
v 1.3450 4.1750 3.3700
v -1.3450 1.2250 3.5100
v -1.2950 1.2250 3.5100
v -1.2950 4.1750 3.5100
v -1.3450 4.1750 3.5100
v -1.2950 1.2250 3.6500
v -1.3450 1.2250 3.6500
v -1.3450 4.1750 3.6500
v -1.2950 4.1750 3.6500
v 1.2950 1.2250 3.5100
v 1.3450 1.2250 3.5100
v 1.3450 4.1750 3.5100
v 1.2950 4.1750 3.5100
v 1.3450 1.2250 3.6500
v 1.2950 1.2250 3.6500
v 1.2950 4.1750 3.6500
v 1.3450 4.1750 3.6500
v -1.3450 1.2250 3.7900
v -1.2950 1.2250 3.7900
v -1.2950 4.1750 3.7900
v -1.3450 4.1750 3.7900
v -1.2950 1.2250 3.9300
v -1.3450 1.2250 3.9300
v -1.3450 4.1750 3.9300
v -1.2950 4.1750 3.9300
v 1.2950 1.2250 3.7900
v 1.3450 1.2250 3.7900
v 1.3450 4.1750 3.7900
v 1.2950 4.1750 3.7900
v 1.3450 1.2250 3.9300
v 1.2950 1.2250 3.9300
v 1.2950 4.1750 3.9300
v 1.3450 4.1750 3.9300
v -1.3450 1.2250 4.0700
v -1.2950 1.2250 4.0700
v -1.2950 4.1750 4.0700
v -1.3450 4.1750 4.0700
v -1.2950 1.2250 4.2100
v -1.3450 1.2250 4.2100
v -1.3450 4.1750 4.2100
v -1.2950 4.1750 4.2100
v 1.2950 1.2250 4.0700
v 1.3450 1.2250 4.0700
v 1.3450 4.1750 4.0700
v 1.2950 4.1750 4.0700
v 1.3450 1.2250 4.2100
v 1.2950 1.2250 4.2100
v 1.2950 4.1750 4.2100
v 1.3450 4.1750 4.2100
v -1.3450 1.2250 4.3500
v -1.2950 1.2250 4.3500
v -1.2950 4.1750 4.3500
v -1.3450 4.1750 4.3500
v -1.2950 1.2250 4.4900
v -1.3450 1.2250 4.4900
v -1.3450 4.1750 4.4900
v -1.2950 4.1750 4.4900
v 1.2950 1.2250 4.3500
v 1.3450 1.2250 4.3500
v 1.3450 4.1750 4.3500
v 1.2950 4.1750 4.3500
v 1.3450 1.2250 4.4900
v 1.2950 1.2250 4.4900
v 1.2950 4.1750 4.4900
v 1.3450 4.1750 4.4900
v -1.3450 1.2250 4.6300
v -1.2950 1.2250 4.6300
v -1.2950 4.1750 4.6300
v -1.3450 4.1750 4.6300
v -1.2950 1.2250 4.7700
v -1.3450 1.2250 4.7700
v -1.3450 4.1750 4.7700
v -1.2950 4.1750 4.7700
v 1.2950 1.2250 4.6300
v 1.3450 1.2250 4.6300
v 1.3450 4.1750 4.6300
v 1.2950 4.1750 4.6300
v 1.3450 1.2250 4.7700
v 1.2950 1.2250 4.7700
v 1.2950 4.1750 4.7700
v 1.3450 4.1750 4.7700
v -1.3450 1.2250 4.9100
v -1.2950 1.2250 4.9100
v -1.2950 4.1750 4.9100
v -1.3450 4.1750 4.9100
v -1.2950 1.2250 5.0500
v -1.3450 1.2250 5.0500
v -1.3450 4.1750 5.0500
v -1.2950 4.1750 5.0500
v 1.2950 1.2250 4.9100
v 1.3450 1.2250 4.9100
v 1.3450 4.1750 4.9100
v 1.2950 4.1750 4.9100
v 1.3450 1.2250 5.0500
v 1.2950 1.2250 5.0500
v 1.2950 4.1750 5.0500
v 1.3450 4.1750 5.0500
v -1.3450 1.2250 5.1900
v -1.2950 1.2250 5.1900
v -1.2950 4.1750 5.1900
v -1.3450 4.1750 5.1900
v -1.2950 1.2250 5.3300
v -1.3450 1.2250 5.3300
v -1.3450 4.1750 5.3300
v -1.2950 4.1750 5.3300
v 1.2950 1.2250 5.1900
v 1.3450 1.2250 5.1900
v 1.3450 4.1750 5.1900
v 1.2950 4.1750 5.1900
v 1.3450 1.2250 5.3300
v 1.2950 1.2250 5.3300
v 1.2950 4.1750 5.3300
v 1.3450 4.1750 5.3300
v -1.3450 1.2250 5.4700
v -1.2950 1.2250 5.4700
v -1.2950 4.1750 5.4700
v -1.3450 4.1750 5.4700
v -1.2950 1.2250 5.6100
v -1.3450 1.2250 5.6100
v -1.3450 4.1750 5.6100
v -1.2950 4.1750 5.6100
v 1.2950 1.2250 5.4700
v 1.3450 1.2250 5.4700
v 1.3450 4.1750 5.4700
v 1.2950 4.1750 5.4700
v 1.3450 1.2250 5.6100
v 1.2950 1.2250 5.6100
v 1.2950 4.1750 5.6100
v 1.3450 4.1750 5.6100
v -1.3450 1.2250 5.7500
v -1.2950 1.2250 5.7500
v -1.2950 4.1750 5.7500
v -1.3450 4.1750 5.7500
v -1.2950 1.2250 5.8900
v -1.3450 1.2250 5.8900
v -1.3450 4.1750 5.8900
v -1.2950 4.1750 5.8900
v 1.2950 1.2250 5.7500
v 1.3450 1.2250 5.7500
v 1.3450 4.1750 5.7500
v 1.2950 4.1750 5.7500
v 1.3450 1.2250 5.8900
v 1.2950 1.2250 5.8900
v 1.2950 4.1750 5.8900
v 1.3450 4.1750 5.8900
v -1.3450 1.2250 6.0300
v -1.2950 1.2250 6.0300
v -1.2950 4.1750 6.0300
v -1.3450 4.1750 6.0300
v -1.2950 1.2250 6.1700
v -1.3450 1.2250 6.1700
v -1.3450 4.1750 6.1700
v -1.2950 4.1750 6.1700
v 1.2950 1.2250 6.0300
v 1.3450 1.2250 6.0300
v 1.3450 4.1750 6.0300
v 1.2950 4.1750 6.0300
v 1.3450 1.2250 6.1700
v 1.2950 1.2250 6.1700
v 1.2950 4.1750 6.1700
v 1.3450 4.1750 6.1700
v -1.3450 1.2250 6.3100
v -1.2950 1.2250 6.3100
v -1.2950 4.1750 6.3100
v -1.3450 4.1750 6.3100
v -1.2950 1.2250 6.4500
v -1.3450 1.2250 6.4500
v -1.3450 4.1750 6.4500
v -1.2950 4.1750 6.4500
v 1.2950 1.2250 6.3100
v 1.3450 1.2250 6.3100
v 1.3450 4.1750 6.3100
v 1.2950 4.1750 6.3100
v 1.3450 1.2250 6.4500
v 1.2950 1.2250 6.4500
v 1.2950 4.1750 6.4500
v 1.3450 4.1750 6.4500
v -1.3450 1.2250 6.5900
v -1.2950 1.2250 6.5900
v -1.2950 4.1750 6.5900
v -1.3450 4.1750 6.5900
v -1.2950 1.2250 6.7300
v -1.3450 1.2250 6.7300
v -1.3450 4.1750 6.7300
v -1.2950 4.1750 6.7300
v 1.2950 1.2250 6.5900
v 1.3450 1.2250 6.5900
v 1.3450 4.1750 6.5900
v 1.2950 4.1750 6.5900
v 1.3450 1.2250 6.7300
v 1.2950 1.2250 6.7300
v 1.2950 4.1750 6.7300
v 1.3450 4.1750 6.7300
v -1.3450 1.2250 6.8700
v -1.2950 1.2250 6.8700
v -1.2950 4.1750 6.8700
v -1.3450 4.1750 6.8700
v -1.2950 1.2250 7.0100
v -1.3450 1.2250 7.0100
v -1.3450 4.1750 7.0100
v -1.2950 4.1750 7.0100
v 1.2950 1.2250 6.8700
v 1.3450 1.2250 6.8700
v 1.3450 4.1750 6.8700
v 1.2950 4.1750 6.8700
v 1.3450 1.2250 7.0100
v 1.2950 1.2250 7.0100
v 1.2950 4.1750 7.0100
v 1.3450 4.1750 7.0100
v -1.3450 1.2250 7.1500
v -1.2950 1.2250 7.1500
v -1.2950 4.1750 7.1500
v -1.3450 4.1750 7.1500
v -1.2950 1.2250 7.2900
v -1.3450 1.2250 7.2900
v -1.3450 4.1750 7.2900
v -1.2950 4.1750 7.2900
v 1.2950 1.2250 7.1500
v 1.3450 1.2250 7.1500
v 1.3450 4.1750 7.1500
v 1.2950 4.1750 7.1500
v 1.3450 1.2250 7.2900
v 1.2950 1.2250 7.2900
v 1.2950 4.1750 7.2900
v 1.3450 4.1750 7.2900
v -1.3450 1.2250 7.4300
v -1.2950 1.2250 7.4300
v -1.2950 4.1750 7.4300
v -1.3450 4.1750 7.4300
v -1.2950 1.2250 7.5700
v -1.3450 1.2250 7.5700
v -1.3450 4.1750 7.5700
v -1.2950 4.1750 7.5700
v 1.2950 1.2250 7.4300
v 1.3450 1.2250 7.4300
v 1.3450 4.1750 7.4300
v 1.2950 4.1750 7.4300
v 1.3450 1.2250 7.5700
v 1.2950 1.2250 7.5700
v 1.2950 4.1750 7.5700
v 1.3450 4.1750 7.5700
v -1.3450 1.2250 7.7100
v -1.2950 1.2250 7.7100
v -1.2950 4.1750 7.7100
v -1.3450 4.1750 7.7100
v -1.2950 1.2250 7.8500
v -1.3450 1.2250 7.8500
v -1.3450 4.1750 7.8500
v -1.2950 4.1750 7.8500
v 1.2950 1.2250 7.7100
v 1.3450 1.2250 7.7100
v 1.3450 4.1750 7.7100
v 1.2950 4.1750 7.7100
v 1.3450 1.2250 7.8500
v 1.2950 1.2250 7.8500
v 1.2950 4.1750 7.8500
v 1.3450 4.1750 7.8500
v -1.3450 1.2250 7.9900
v -1.2950 1.2250 7.9900
v -1.2950 4.1750 7.9900
v -1.3450 4.1750 7.9900
v -1.2950 1.2250 8.1300
v -1.3450 1.2250 8.1300
v -1.3450 4.1750 8.1300
v -1.2950 4.1750 8.1300
v 1.2950 1.2250 7.9900
v 1.3450 1.2250 7.9900
v 1.3450 4.1750 7.9900
v 1.2950 4.1750 7.9900
v 1.3450 1.2250 8.1300
v 1.2950 1.2250 8.1300
v 1.2950 4.1750 8.1300
v 1.3450 4.1750 8.1300
v -1.3450 1.2250 8.2700
v -1.2950 1.2250 8.2700
v -1.2950 4.1750 8.2700
v -1.3450 4.1750 8.2700
v -1.2950 1.2250 8.4100
v -1.3450 1.2250 8.4100
v -1.3450 4.1750 8.4100
v -1.2950 4.1750 8.4100
v 1.2950 1.2250 8.2700
v 1.3450 1.2250 8.2700
v 1.3450 4.1750 8.2700
v 1.2950 4.1750 8.2700
v 1.3450 1.2250 8.4100
v 1.2950 1.2250 8.4100
v 1.2950 4.1750 8.4100
v 1.3450 4.1750 8.4100
v -1.3450 1.2250 8.5500
v -1.2950 1.2250 8.5500
v -1.2950 4.1750 8.5500
v -1.3450 4.1750 8.5500
v -1.2950 1.2250 8.6900
v -1.3450 1.2250 8.6900
v -1.3450 4.1750 8.6900
v -1.2950 4.1750 8.6900
v 1.2950 1.2250 8.5500
v 1.3450 1.2250 8.5500
v 1.3450 4.1750 8.5500
v 1.2950 4.1750 8.5500
v 1.3450 1.2250 8.6900
v 1.2950 1.2250 8.6900
v 1.2950 4.1750 8.6900
v 1.3450 4.1750 8.6900
v -1.3450 1.2250 8.8300
v -1.2950 1.2250 8.8300
v -1.2950 4.1750 8.8300
v -1.3450 4.1750 8.8300
v -1.2950 1.2250 8.9700
v -1.3450 1.2250 8.9700
v -1.3450 4.1750 8.9700
v -1.2950 4.1750 8.9700
v 1.2950 1.2250 8.8300
v 1.3450 1.2250 8.8300
v 1.3450 4.1750 8.8300
v 1.2950 4.1750 8.8300
v 1.3450 1.2250 8.9700
v 1.2950 1.2250 8.9700
v 1.2950 4.1750 8.9700
v 1.3450 4.1750 8.9700
v -1.3450 1.2250 9.1100
v -1.2950 1.2250 9.1100
v -1.2950 4.1750 9.1100
v -1.3450 4.1750 9.1100
v -1.2950 1.2250 9.2500
v -1.3450 1.2250 9.2500
v -1.3450 4.1750 9.2500
v -1.2950 4.1750 9.2500
v 1.2950 1.2250 9.1100
v 1.3450 1.2250 9.1100
v 1.3450 4.1750 9.1100
v 1.2950 4.1750 9.1100
v 1.3450 1.2250 9.2500
v 1.2950 1.2250 9.2500
v 1.2950 4.1750 9.2500
v 1.3450 4.1750 9.2500
v -1.2500 0.4300 9.8400
v 1.2500 0.4300 9.8400
v 1.2500 0.6700 9.8400
v -1.2500 0.6700 9.8400
v 1.2500 0.4300 9.9600
v -1.2500 0.4300 9.9600
v -1.2500 0.6700 9.9600
v 1.2500 0.6700 9.9600
vt 0.0000 0.0000
vt 1.0000 0.0000
vt 1.0000 1.0000
vt 0.0000 1.0000
vt 0.0000 0.0000
vt 1.0000 0.0000
vt 1.0000 1.0000
vt 0.0000 1.0000
vt 0.0000 0.0000
vt 1.0000 0.0000
vt 1.0000 1.0000
vt 0.0000 1.0000
vt 0.0000 0.0000
vt 1.0000 0.0000
vt 1.0000 1.0000
vt 0.0000 1.0000
vt 0.0000 0.0000
vt 1.0000 0.0000
vt 1.0000 1.0000
vt 0.0000 1.0000
vt 0.0000 0.0000
vt 1.0000 0.0000
vt 1.0000 1.0000
vt 0.0000 1.0000
vt 0.0000 0.0000
vt 1.0000 0.0000
vt 1.0000 1.0000
vt 0.0000 1.0000
vt 0.0000 0.0000
vt 1.0000 0.0000
vt 1.0000 1.0000
vt 0.0000 1.0000
vt 0.0000 0.0000
vt 1.0000 0.0000
vt 1.0000 1.0000
vt 0.0000 1.0000
vt 0.0000 0.0000
vt 1.0000 0.0000
vt 1.0000 1.0000
vt 0.0000 1.0000
vt 0.0000 0.0000
vt 1.0000 0.0000
vt 1.0000 1.0000
vt 0.0000 1.0000
vt 0.0000 0.0000
vt 1.0000 0.0000
vt 1.0000 1.0000
vt 0.0000 1.0000
vt 0.0000 0.0000
vt 1.0000 0.0000
vt 1.0000 1.0000
vt 0.0000 1.0000
vt 0.0000 0.0000
vt 1.0000 0.0000
vt 1.0000 1.0000
vt 0.0000 1.0000
vt 0.0000 0.0000
vt 1.0000 0.0000
vt 1.0000 1.0000
vt 0.0000 1.0000
vt 0.0000 0.0000
vt 1.0000 0.0000
vt 1.0000 1.0000
vt 0.0000 1.0000
vt 0.0000 0.0000
vt 1.0000 0.0000
vt 1.0000 1.0000
vt 0.0000 1.0000
vt 0.0000 0.0000
vt 1.0000 0.0000
vt 1.0000 1.0000
vt 0.0000 1.0000
vt 0.0000 0.0000
vt 1.0000 0.0000
vt 1.0000 1.0000
vt 0.0000 1.0000
vt 0.0000 0.0000
vt 1.0000 0.0000
vt 1.0000 1.0000
vt 0.0000 1.0000
vt 0.0000 0.0000
vt 1.0000 0.0000
vt 1.0000 1.0000
vt 0.0000 1.0000
vt 0.0000 0.0000
vt 1.0000 0.0000
vt 1.0000 1.0000
vt 0.0000 1.0000
vt 0.0000 0.0000
vt 1.0000 0.0000
vt 1.0000 1.0000
vt 0.0000 1.0000
vt 0.0000 0.0000
vt 1.0000 0.0000
vt 1.0000 1.0000
vt 0.0000 1.0000
vt 0.0000 0.0000
vt 1.0000 0.0000
vt 1.0000 1.0000
vt 0.0000 1.0000
vt 0.0000 0.0000
vt 1.0000 0.0000
vt 1.0000 1.0000
vt 0.0000 1.0000
vt 0.0000 0.0000
vt 1.0000 0.0000
vt 1.0000 1.0000
vt 0.0000 1.0000
vt 0.0000 0.0000
vt 1.0000 0.0000
vt 1.0000 1.0000
vt 0.0000 1.0000
vt 0.0000 0.0000
vt 1.0000 0.0000
vt 1.0000 1.0000
vt 0.0000 1.0000
vt 0.0000 0.0000
vt 1.0000 0.0000
vt 1.0000 1.0000
vt 0.0000 1.0000
vt 0.0000 0.0000
vt 1.0000 0.0000
vt 1.0000 1.0000
vt 0.0000 1.0000
vt 0.0000 0.0000
vt 1.0000 0.0000
vt 1.0000 1.0000
vt 0.0000 1.0000
vt 0.0000 0.0000
vt 1.0000 0.0000
vt 1.0000 1.0000
vt 0.0000 1.0000
vt 0.0000 0.0000
vt 1.0000 0.0000
vt 1.0000 1.0000
vt 0.0000 1.0000
vt 0.0000 0.0000
vt 1.0000 0.0000
vt 1.0000 1.0000
vt 0.0000 1.0000
vt 0.0000 0.0000
vt 1.0000 0.0000
vt 1.0000 1.0000
vt 0.0000 1.0000
vt 0.0000 0.0000
vt 1.0000 0.0000
vt 1.0000 1.0000
vt 0.0000 1.0000
vt 0.0000 0.0000
vt 1.0000 0.0000
vt 1.0000 1.0000
vt 0.0000 1.0000
vt 0.0000 0.0000
vt 1.0000 0.0000
vt 1.0000 1.0000
vt 0.0000 1.0000
vt 0.0000 0.0000
vt 1.0000 0.0000
vt 1.0000 1.0000
vt 0.0000 1.0000
vt 0.0000 0.0000
vt 1.0000 0.0000
vt 1.0000 1.0000
vt 0.0000 1.0000
vt 0.0000 0.0000
vt 1.0000 0.0000
vt 1.0000 1.0000
vt 0.0000 1.0000
vt 0.0000 0.0000
vt 1.0000 0.0000
vt 1.0000 1.0000
vt 0.0000 1.0000
vt 0.0000 0.0000
vt 1.0000 0.0000
vt 1.0000 1.0000
vt 0.0000 1.0000
vt 0.0000 0.0000
vt 1.0000 0.0000
vt 1.0000 1.0000
vt 0.0000 1.0000
vt 0.0000 0.0000
vt 1.0000 0.0000
vt 1.0000 1.0000
vt 0.0000 1.0000
vt 0.0000 0.0000
vt 1.0000 0.0000
vt 1.0000 1.0000
vt 0.0000 1.0000
vt 0.0000 0.0000
vt 1.0000 0.0000
vt 1.0000 1.0000
vt 0.0000 1.0000
vt 0.0000 0.0000
vt 1.0000 0.0000
vt 1.0000 1.0000
vt 0.0000 1.0000
vt 0.0000 0.0000
vt 1.0000 0.0000
vt 1.0000 1.0000
vt 0.0000 1.0000
vt 0.0000 0.0000
vt 1.0000 0.0000
vt 1.0000 1.0000
vt 0.0000 1.0000
vt 0.0000 0.0000
vt 1.0000 0.0000
vt 1.0000 1.0000
vt 0.0000 1.0000
vt 0.0000 0.0000
vt 1.0000 0.0000
vt 1.0000 1.0000
vt 0.0000 1.0000
vt 0.0000 0.0000
vt 1.0000 0.0000
vt 1.0000 1.0000
vt 0.0000 1.0000
vt 0.0000 0.0000
vt 1.0000 0.0000
vt 1.0000 1.0000
vt 0.0000 1.0000
vt 0.0000 0.0000
vt 1.0000 0.0000
vt 1.0000 1.0000
vt 0.0000 1.0000
vt 0.0000 0.0000
vt 1.0000 0.0000
vt 1.0000 1.0000
vt 0.0000 1.0000
vt 0.0000 0.0000
vt 1.0000 0.0000
vt 1.0000 1.0000
vt 0.0000 1.0000
vt 0.0000 0.0000
vt 1.0000 0.0000
vt 1.0000 1.0000
vt 0.0000 1.0000
vt 0.0000 0.0000
vt 1.0000 0.0000
vt 1.0000 1.0000
vt 0.0000 1.0000
vt 0.0000 0.0000
vt 1.0000 0.0000
vt 1.0000 1.0000
vt 0.0000 1.0000
vt 0.0000 0.0000
vt 1.0000 0.0000
vt 1.0000 1.0000
vt 0.0000 1.0000
vt 0.0000 0.0000
vt 1.0000 0.0000
vt 1.0000 1.0000
vt 0.0000 1.0000
vt 0.0000 0.0000
vt 1.0000 0.0000
vt 1.0000 1.0000
vt 0.0000 1.0000
vt 0.0000 0.0000
vt 1.0000 0.0000
vt 1.0000 1.0000
vt 0.0000 1.0000
vt 0.0000 0.0000
vt 1.0000 0.0000
vt 1.0000 1.0000
vt 0.0000 1.0000
vt 0.0000 0.0000
vt 1.0000 0.0000
vt 1.0000 1.0000
vt 0.0000 1.0000
vn 0.0000 0.0000 -1.0000
vn 0.0000 0.0000 1.0000
vn -1.0000 0.0000 0.0000
vn 1.0000 0.0000 0.0000
vn 0.0000 1.0000 0.0000
vn 0.0000 -1.0000 0.0000
vn 0.0000 0.0000 -1.0000
vn 0.0000 0.0000 1.0000
vn -1.0000 0.0000 0.0000
vn 1.0000 0.0000 0.0000
vn 0.0000 1.0000 0.0000
vn 0.0000 -1.0000 0.0000
vn 0.0000 0.0000 -1.0000
vn 0.0000 0.0000 1.0000
vn -1.0000 0.0000 0.0000
vn 1.0000 0.0000 0.0000
vn 0.0000 1.0000 0.0000
vn 0.0000 -1.0000 0.0000
vn 0.0000 0.0000 -1.0000
vn 0.0000 0.0000 1.0000
vn -1.0000 0.0000 0.0000
vn 1.0000 0.0000 0.0000
vn 0.0000 1.0000 0.0000
vn 0.0000 -1.0000 0.0000
vn 0.0000 0.0000 -1.0000
vn 0.0000 0.0000 1.0000
vn -1.0000 0.0000 0.0000
vn 1.0000 0.0000 0.0000
vn 0.0000 1.0000 0.0000
vn 0.0000 -1.0000 0.0000
vn 0.0000 0.0000 -1.0000
vn 0.0000 0.0000 1.0000
vn -1.0000 0.0000 0.0000
vn 1.0000 0.0000 0.0000
vn 0.0000 1.0000 0.0000
vn 0.0000 -1.0000 0.0000
vn 0.0000 0.0000 -1.0000
vn 0.0000 0.0000 1.0000
vn -1.0000 0.0000 0.0000
vn 1.0000 0.0000 0.0000
vn 0.0000 1.0000 0.0000
vn 0.0000 -1.0000 0.0000
vn 0.0000 0.0000 -1.0000
vn 0.0000 0.0000 1.0000
vn -1.0000 0.0000 0.0000
vn 1.0000 0.0000 0.0000
vn 0.0000 1.0000 0.0000
vn 0.0000 -1.0000 0.0000
vn 0.0000 0.0000 -1.0000
vn 0.0000 0.0000 1.0000
vn -1.0000 0.0000 0.0000
vn 1.0000 0.0000 0.0000
vn 0.0000 1.0000 0.0000
vn 0.0000 -1.0000 0.0000
vn 0.0000 0.0000 -1.0000
vn 0.0000 0.0000 1.0000
vn -1.0000 0.0000 0.0000
vn 1.0000 0.0000 0.0000
vn 0.0000 1.0000 0.0000
vn 0.0000 -1.0000 0.0000
vn 0.0000 0.0000 -1.0000
vn 0.0000 0.0000 1.0000
vn -1.0000 0.0000 0.0000
vn 1.0000 0.0000 0.0000
vn 0.0000 1.0000 0.0000
vn 0.0000 -1.0000 0.0000
vn 0.0000 0.0000 -1.0000
vn 0.0000 0.0000 1.0000
vn -1.0000 0.0000 0.0000
vn 1.0000 0.0000 0.0000
vn 0.0000 1.0000 0.0000
vn 0.0000 -1.0000 0.0000
vn 0.0000 0.0000 -1.0000
vn 0.0000 0.0000 1.0000
vn -1.0000 0.0000 0.0000
vn 1.0000 0.0000 0.0000
vn 0.0000 1.0000 0.0000
vn 0.0000 -1.0000 0.0000
vn 0.0000 0.0000 -1.0000
vn 0.0000 0.0000 1.0000
vn -1.0000 0.0000 0.0000
vn 1.0000 0.0000 0.0000
vn 0.0000 1.0000 0.0000
vn 0.0000 -1.0000 0.0000
vn 0.0000 0.0000 -1.0000
vn 0.0000 0.0000 1.0000
vn -1.0000 0.0000 0.0000
vn 1.0000 0.0000 0.0000
vn 0.0000 1.0000 0.0000
vn 0.0000 -1.0000 0.0000
vn 0.0000 0.0000 -1.0000
vn 0.0000 0.0000 1.0000
vn -1.0000 0.0000 0.0000
vn 1.0000 0.0000 0.0000
vn 0.0000 1.0000 0.0000
vn 0.0000 -1.0000 0.0000
vn 0.0000 0.0000 -1.0000
vn 0.0000 0.0000 1.0000
vn -1.0000 0.0000 0.0000
vn 1.0000 0.0000 0.0000
vn 0.0000 1.0000 0.0000
vn 0.0000 -1.0000 0.0000
vn 0.0000 0.0000 -1.0000
vn 0.0000 0.0000 1.0000
vn -1.0000 0.0000 0.0000
vn 1.0000 0.0000 0.0000
vn 0.0000 1.0000 0.0000
vn 0.0000 -1.0000 0.0000
vn 0.0000 0.0000 -1.0000
vn 0.0000 0.0000 1.0000
vn -1.0000 0.0000 0.0000
vn 1.0000 0.0000 0.0000
vn 0.0000 1.0000 0.0000
vn 0.0000 -1.0000 0.0000
vn 0.0000 0.0000 -1.0000
vn 0.0000 0.0000 1.0000
vn -1.0000 0.0000 0.0000
vn 1.0000 0.0000 0.0000
vn 0.0000 1.0000 0.0000
vn 0.0000 -1.0000 0.0000
vn 0.0000 0.0000 -1.0000
vn 0.0000 0.0000 1.0000
vn -1.0000 0.0000 0.0000
vn 1.0000 0.0000 0.0000
vn 0.0000 1.0000 0.0000
vn 0.0000 -1.0000 0.0000
vn 0.0000 0.0000 -1.0000
vn 0.0000 0.0000 1.0000
vn -1.0000 0.0000 0.0000
vn 1.0000 0.0000 0.0000
vn 0.0000 1.0000 0.0000
vn 0.0000 -1.0000 0.0000
vn 0.0000 0.0000 -1.0000
vn 0.0000 0.0000 1.0000
vn -1.0000 0.0000 0.0000
vn 1.0000 0.0000 0.0000
vn 0.0000 1.0000 0.0000
vn 0.0000 -1.0000 0.0000
vn 0.0000 0.0000 -1.0000
vn 0.0000 0.0000 1.0000
vn -1.0000 0.0000 0.0000
vn 1.0000 0.0000 0.0000
vn 0.0000 1.0000 0.0000
vn 0.0000 -1.0000 0.0000
vn 0.0000 0.0000 -1.0000
vn 0.0000 0.0000 1.0000
vn -1.0000 0.0000 0.0000
vn 1.0000 0.0000 0.0000
vn 0.0000 1.0000 0.0000
vn 0.0000 -1.0000 0.0000
vn 0.0000 0.0000 -1.0000
vn 0.0000 0.0000 1.0000
vn -1.0000 0.0000 0.0000
vn 1.0000 0.0000 0.0000
vn 0.0000 1.0000 0.0000
vn 0.0000 -1.0000 0.0000
vn 0.0000 0.0000 -1.0000
vn 0.0000 0.0000 1.0000
vn -1.0000 0.0000 0.0000
vn 1.0000 0.0000 0.0000
vn 0.0000 1.0000 0.0000
vn 0.0000 -1.0000 0.0000
vn 0.0000 0.0000 -1.0000
vn 0.0000 0.0000 1.0000
vn -1.0000 0.0000 0.0000
vn 1.0000 0.0000 0.0000
vn 0.0000 1.0000 0.0000
vn 0.0000 -1.0000 0.0000
vn 0.0000 0.0000 -1.0000
vn 0.0000 0.0000 1.0000
vn -1.0000 0.0000 0.0000
vn 1.0000 0.0000 0.0000
vn 0.0000 1.0000 0.0000
vn 0.0000 -1.0000 0.0000
vn 0.0000 0.0000 -1.0000
vn 0.0000 0.0000 1.0000
vn -1.0000 0.0000 0.0000
vn 1.0000 0.0000 0.0000
vn 0.0000 1.0000 0.0000
vn 0.0000 -1.0000 0.0000
vn 0.0000 0.0000 -1.0000
vn 0.0000 0.0000 1.0000
vn -1.0000 0.0000 0.0000
vn 1.0000 0.0000 0.0000
vn 0.0000 1.0000 0.0000
vn 0.0000 -1.0000 0.0000
vn 0.0000 0.0000 -1.0000
vn 0.0000 0.0000 1.0000
vn -1.0000 0.0000 0.0000
vn 1.0000 0.0000 0.0000
vn 0.0000 1.0000 0.0000
vn 0.0000 -1.0000 0.0000
vn 0.0000 0.0000 -1.0000
vn 0.0000 0.0000 1.0000
vn -1.0000 0.0000 0.0000
vn 1.0000 0.0000 0.0000
vn 0.0000 1.0000 0.0000
vn 0.0000 -1.0000 0.0000
vn 0.0000 0.0000 -1.0000
vn 0.0000 0.0000 1.0000
vn -1.0000 0.0000 0.0000
vn 1.0000 0.0000 0.0000
vn 0.0000 1.0000 0.0000
vn 0.0000 -1.0000 0.0000
vn 0.0000 0.0000 -1.0000
vn 0.0000 0.0000 1.0000
vn -1.0000 0.0000 0.0000
vn 1.0000 0.0000 0.0000
vn 0.0000 1.0000 0.0000
vn 0.0000 -1.0000 0.0000
vn 0.0000 0.0000 -1.0000
vn 0.0000 0.0000 1.0000
vn -1.0000 0.0000 0.0000
vn 1.0000 0.0000 0.0000
vn 0.0000 1.0000 0.0000
vn 0.0000 -1.0000 0.0000
vn 0.0000 0.0000 -1.0000
vn 0.0000 0.0000 1.0000
vn -1.0000 0.0000 0.0000
vn 1.0000 0.0000 0.0000
vn 0.0000 1.0000 0.0000
vn 0.0000 -1.0000 0.0000
vn 0.0000 0.0000 -1.0000
vn 0.0000 0.0000 1.0000
vn -1.0000 0.0000 0.0000
vn 1.0000 0.0000 0.0000
vn 0.0000 1.0000 0.0000
vn 0.0000 -1.0000 0.0000
vn 0.0000 0.0000 -1.0000
vn 0.0000 0.0000 1.0000
vn -1.0000 0.0000 0.0000
vn 1.0000 0.0000 0.0000
vn 0.0000 1.0000 0.0000
vn 0.0000 -1.0000 0.0000
vn 0.0000 0.0000 -1.0000
vn 0.0000 0.0000 1.0000
vn -1.0000 0.0000 0.0000
vn 1.0000 0.0000 0.0000
vn 0.0000 1.0000 0.0000
vn 0.0000 -1.0000 0.0000
vn 0.0000 0.0000 -1.0000
vn 0.0000 0.0000 1.0000
vn -1.0000 0.0000 0.0000
vn 1.0000 0.0000 0.0000
vn 0.0000 1.0000 0.0000
vn 0.0000 -1.0000 0.0000
vn 0.0000 0.0000 -1.0000
vn 0.0000 0.0000 1.0000
vn -1.0000 0.0000 0.0000
vn 1.0000 0.0000 0.0000
vn 0.0000 1.0000 0.0000
vn 0.0000 -1.0000 0.0000
vn 0.0000 0.0000 -1.0000
vn 0.0000 0.0000 1.0000
vn -1.0000 0.0000 0.0000
vn 1.0000 0.0000 0.0000
vn 0.0000 1.0000 0.0000
vn 0.0000 -1.0000 0.0000
vn 0.0000 0.0000 -1.0000
vn 0.0000 0.0000 1.0000
vn -1.0000 0.0000 0.0000
vn 1.0000 0.0000 0.0000
vn 0.0000 1.0000 0.0000
vn 0.0000 -1.0000 0.0000
vn 0.0000 0.0000 -1.0000
vn 0.0000 0.0000 1.0000
vn -1.0000 0.0000 0.0000
vn 1.0000 0.0000 0.0000
vn 0.0000 1.0000 0.0000
vn 0.0000 -1.0000 0.0000
vn 0.0000 0.0000 -1.0000
vn 0.0000 0.0000 1.0000
vn -1.0000 0.0000 0.0000
vn 1.0000 0.0000 0.0000
vn 0.0000 1.0000 0.0000
vn 0.0000 -1.0000 0.0000
vn 0.0000 0.0000 -1.0000
vn 0.0000 0.0000 1.0000
vn -1.0000 0.0000 0.0000
vn 1.0000 0.0000 0.0000
vn 0.0000 1.0000 0.0000
vn 0.0000 -1.0000 0.0000
vn 0.0000 0.0000 -1.0000
vn 0.0000 0.0000 1.0000
vn -1.0000 0.0000 0.0000
vn 1.0000 0.0000 0.0000
vn 0.0000 1.0000 0.0000
vn 0.0000 -1.0000 0.0000
vn 0.0000 0.0000 -1.0000
vn 0.0000 0.0000 1.0000
vn -1.0000 0.0000 0.0000
vn 1.0000 0.0000 0.0000
vn 0.0000 1.0000 0.0000
vn 0.0000 -1.0000 0.0000
vn 0.0000 0.0000 -1.0000
vn 0.0000 0.0000 1.0000
vn -1.0000 0.0000 0.0000
vn 1.0000 0.0000 0.0000
vn 0.0000 1.0000 0.0000
vn 0.0000 -1.0000 0.0000
vn 0.0000 0.0000 -1.0000
vn 0.0000 0.0000 1.0000
vn -1.0000 0.0000 0.0000
vn 1.0000 0.0000 0.0000
vn 0.0000 1.0000 0.0000
vn 0.0000 -1.0000 0.0000
vn 0.0000 0.0000 -1.0000
vn 0.0000 0.0000 1.0000
vn -1.0000 0.0000 0.0000
vn 1.0000 0.0000 0.0000
vn 0.0000 1.0000 0.0000
vn 0.0000 -1.0000 0.0000
vn 0.0000 0.0000 -1.0000
vn 0.0000 0.0000 1.0000
vn -1.0000 0.0000 0.0000
vn 1.0000 0.0000 0.0000
vn 0.0000 1.0000 0.0000
vn 0.0000 -1.0000 0.0000
vn 0.0000 0.0000 -1.0000
vn 0.0000 0.0000 1.0000
vn -1.0000 0.0000 0.0000
vn 1.0000 0.0000 0.0000
vn 0.0000 1.0000 0.0000
vn 0.0000 -1.0000 0.0000
vn 0.0000 0.0000 -1.0000
vn 0.0000 0.0000 1.0000
vn -1.0000 0.0000 0.0000
vn 1.0000 0.0000 0.0000
vn 0.0000 1.0000 0.0000
vn 0.0000 -1.0000 0.0000
vn 0.0000 0.0000 -1.0000
vn 0.0000 0.0000 1.0000
vn -1.0000 0.0000 0.0000
vn 1.0000 0.0000 0.0000
vn 0.0000 1.0000 0.0000
vn 0.0000 -1.0000 0.0000
vn 0.0000 0.0000 -1.0000
vn 0.0000 0.0000 1.0000
vn -1.0000 0.0000 0.0000
vn 1.0000 0.0000 0.0000
vn 0.0000 1.0000 0.0000
vn 0.0000 -1.0000 0.0000
vn 0.0000 0.0000 -1.0000
vn 0.0000 0.0000 1.0000
vn -1.0000 0.0000 0.0000
vn 1.0000 0.0000 0.0000
vn 0.0000 1.0000 0.0000
vn 0.0000 -1.0000 0.0000
vn 0.0000 0.0000 -1.0000
vn 0.0000 0.0000 1.0000
vn -1.0000 0.0000 0.0000
vn 1.0000 0.0000 0.0000
vn 0.0000 1.0000 0.0000
vn 0.0000 -1.0000 0.0000
vn 0.0000 0.0000 -1.0000
vn 0.0000 0.0000 1.0000
vn -1.0000 0.0000 0.0000
vn 1.0000 0.0000 0.0000
vn 0.0000 1.0000 0.0000
vn 0.0000 -1.0000 0.0000
vn 0.0000 0.0000 -1.0000
vn 0.0000 0.0000 1.0000
vn -1.0000 0.0000 0.0000
vn 1.0000 0.0000 0.0000
vn 0.0000 1.0000 0.0000
vn 0.0000 -1.0000 0.0000
vn 0.0000 0.0000 -1.0000
vn 0.0000 0.0000 1.0000
vn -1.0000 0.0000 0.0000
vn 1.0000 0.0000 0.0000
vn 0.0000 1.0000 0.0000
vn 0.0000 -1.0000 0.0000
vn 0.0000 0.0000 -1.0000
vn 0.0000 0.0000 1.0000
vn -1.0000 0.0000 0.0000
vn 1.0000 0.0000 0.0000
vn 0.0000 1.0000 0.0000
vn 0.0000 -1.0000 0.0000
vn 0.0000 0.0000 -1.0000
vn 0.0000 0.0000 1.0000
vn -1.0000 0.0000 0.0000
vn 1.0000 0.0000 0.0000
vn 0.0000 1.0000 0.0000
vn 0.0000 -1.0000 0.0000
vn 0.0000 0.0000 -1.0000
vn 0.0000 0.0000 1.0000
vn -1.0000 0.0000 0.0000
vn 1.0000 0.0000 0.0000
vn 0.0000 1.0000 0.0000
vn 0.0000 -1.0000 0.0000
vn 0.0000 0.0000 -1.0000
vn 0.0000 0.0000 1.0000
vn -1.0000 0.0000 0.0000
vn 1.0000 0.0000 0.0000
vn 0.0000 1.0000 0.0000
vn 0.0000 -1.0000 0.0000
vn 0.0000 0.0000 -1.0000
vn 0.0000 0.0000 1.0000
vn -1.0000 0.0000 0.0000
vn 1.0000 0.0000 0.0000
vn 0.0000 1.0000 0.0000
vn 0.0000 -1.0000 0.0000
g chassis
usemtl chassis
f 1/1/1 2/2/1 3/3/1
f 1/1/1 3/3/1 4/4/1
f 5/1/2 6/2/2 7/3/2
f 5/1/2 7/3/2 8/4/2
f 6/1/3 1/2/3 4/3/3
f 6/1/3 4/3/3 7/4/3
f 2/1/4 5/2/4 8/3/4
f 2/1/4 8/3/4 3/4/4
f 4/1/5 3/2/5 8/3/5
f 4/1/5 8/3/5 7/4/5
f 6/1/6 5/2/6 2/3/6
f 6/1/6 2/3/6 1/4/6
g trailer_body
usemtl trailer_body
f 9/5/7 10/6/7 11/7/7
f 9/5/7 11/7/7 12/8/7
f 13/5/8 14/6/8 15/7/8
f 13/5/8 15/7/8 16/8/8
f 14/5/9 9/6/9 12/7/9
f 14/5/9 12/7/9 15/8/9
f 10/5/10 13/6/10 16/7/10
f 10/5/10 16/7/10 11/8/10
f 12/5/11 11/6/11 16/7/11
f 12/5/11 16/7/11 15/8/11
f 14/5/12 13/6/12 10/7/12
f 14/5/12 10/7/12 9/8/12
g trailer_corrugated
usemtl trailer_corrugated
f 17/9/13 18/10/13 19/11/13
f 17/9/13 19/11/13 20/12/13
f 21/9/14 22/10/14 23/11/14
f 21/9/14 23/11/14 24/12/14
f 22/9/15 17/10/15 20/11/15
f 22/9/15 20/11/15 23/12/15
f 18/9/16 21/10/16 24/11/16
f 18/9/16 24/11/16 19/12/16
f 20/9/17 19/10/17 24/11/17
f 20/9/17 24/11/17 23/12/17
f 22/9/18 21/10/18 18/11/18
f 22/9/18 18/11/18 17/12/18
f 25/13/19 26/14/19 27/15/19
f 25/13/19 27/15/19 28/16/19
f 29/13/20 30/14/20 31/15/20
f 29/13/20 31/15/20 32/16/20
f 30/13/21 25/14/21 28/15/21
f 30/13/21 28/15/21 31/16/21
f 26/13/22 29/14/22 32/15/22
f 26/13/22 32/15/22 27/16/22
f 28/13/23 27/14/23 32/15/23
f 28/13/23 32/15/23 31/16/23
f 30/13/24 29/14/24 26/15/24
f 30/13/24 26/15/24 25/16/24
f 33/17/25 34/18/25 35/19/25
f 33/17/25 35/19/25 36/20/25
f 37/17/26 38/18/26 39/19/26
f 37/17/26 39/19/26 40/20/26
f 38/17/27 33/18/27 36/19/27
f 38/17/27 36/19/27 39/20/27
f 34/17/28 37/18/28 40/19/28
f 34/17/28 40/19/28 35/20/28
f 36/17/29 35/18/29 40/19/29
f 36/17/29 40/19/29 39/20/29
f 38/17/30 37/18/30 34/19/30
f 38/17/30 34/19/30 33/20/30
f 41/21/31 42/22/31 43/23/31
f 41/21/31 43/23/31 44/24/31
f 45/21/32 46/22/32 47/23/32
f 45/21/32 47/23/32 48/24/32
f 46/21/33 41/22/33 44/23/33
f 46/21/33 44/23/33 47/24/33
f 42/21/34 45/22/34 48/23/34
f 42/21/34 48/23/34 43/24/34
f 44/21/35 43/22/35 48/23/35
f 44/21/35 48/23/35 47/24/35
f 46/21/36 45/22/36 42/23/36
f 46/21/36 42/23/36 41/24/36
f 49/25/37 50/26/37 51/27/37
f 49/25/37 51/27/37 52/28/37
f 53/25/38 54/26/38 55/27/38
f 53/25/38 55/27/38 56/28/38
f 54/25/39 49/26/39 52/27/39
f 54/25/39 52/27/39 55/28/39
f 50/25/40 53/26/40 56/27/40
f 50/25/40 56/27/40 51/28/40
f 52/25/41 51/26/41 56/27/41
f 52/25/41 56/27/41 55/28/41
f 54/25/42 53/26/42 50/27/42
f 54/25/42 50/27/42 49/28/42
f 57/29/43 58/30/43 59/31/43
f 57/29/43 59/31/43 60/32/43
f 61/29/44 62/30/44 63/31/44
f 61/29/44 63/31/44 64/32/44
f 62/29/45 57/30/45 60/31/45
f 62/29/45 60/31/45 63/32/45
f 58/29/46 61/30/46 64/31/46
f 58/29/46 64/31/46 59/32/46
f 60/29/47 59/30/47 64/31/47
f 60/29/47 64/31/47 63/32/47
f 62/29/48 61/30/48 58/31/48
f 62/29/48 58/31/48 57/32/48
f 65/33/49 66/34/49 67/35/49
f 65/33/49 67/35/49 68/36/49
f 69/33/50 70/34/50 71/35/50
f 69/33/50 71/35/50 72/36/50
f 70/33/51 65/34/51 68/35/51
f 70/33/51 68/35/51 71/36/51
f 66/33/52 69/34/52 72/35/52
f 66/33/52 72/35/52 67/36/52
f 68/33/53 67/34/53 72/35/53
f 68/33/53 72/35/53 71/36/53
f 70/33/54 69/34/54 66/35/54
f 70/33/54 66/35/54 65/36/54
f 73/37/55 74/38/55 75/39/55
f 73/37/55 75/39/55 76/40/55
f 77/37/56 78/38/56 79/39/56
f 77/37/56 79/39/56 80/40/56
f 78/37/57 73/38/57 76/39/57
f 78/37/57 76/39/57 79/40/57
f 74/37/58 77/38/58 80/39/58
f 74/37/58 80/39/58 75/40/58
f 76/37/59 75/38/59 80/39/59
f 76/37/59 80/39/59 79/40/59
f 78/37/60 77/38/60 74/39/60
f 78/37/60 74/39/60 73/40/60
f 81/41/61 82/42/61 83/43/61
f 81/41/61 83/43/61 84/44/61
f 85/41/62 86/42/62 87/43/62
f 85/41/62 87/43/62 88/44/62
f 86/41/63 81/42/63 84/43/63
f 86/41/63 84/43/63 87/44/63
f 82/41/64 85/42/64 88/43/64
f 82/41/64 88/43/64 83/44/64
f 84/41/65 83/42/65 88/43/65
f 84/41/65 88/43/65 87/44/65
f 86/41/66 85/42/66 82/43/66
f 86/41/66 82/43/66 81/44/66
f 89/45/67 90/46/67 91/47/67
f 89/45/67 91/47/67 92/48/67
f 93/45/68 94/46/68 95/47/68
f 93/45/68 95/47/68 96/48/68
f 94/45/69 89/46/69 92/47/69
f 94/45/69 92/47/69 95/48/69
f 90/45/70 93/46/70 96/47/70
f 90/45/70 96/47/70 91/48/70
f 92/45/71 91/46/71 96/47/71
f 92/45/71 96/47/71 95/48/71
f 94/45/72 93/46/72 90/47/72
f 94/45/72 90/47/72 89/48/72
f 97/49/73 98/50/73 99/51/73
f 97/49/73 99/51/73 100/52/73
f 101/49/74 102/50/74 103/51/74
f 101/49/74 103/51/74 104/52/74
f 102/49/75 97/50/75 100/51/75
f 102/49/75 100/51/75 103/52/75
f 98/49/76 101/50/76 104/51/76
f 98/49/76 104/51/76 99/52/76
f 100/49/77 99/50/77 104/51/77
f 100/49/77 104/51/77 103/52/77
f 102/49/78 101/50/78 98/51/78
f 102/49/78 98/51/78 97/52/78
f 105/53/79 106/54/79 107/55/79
f 105/53/79 107/55/79 108/56/79
f 109/53/80 110/54/80 111/55/80
f 109/53/80 111/55/80 112/56/80
f 110/53/81 105/54/81 108/55/81
f 110/53/81 108/55/81 111/56/81
f 106/53/82 109/54/82 112/55/82
f 106/53/82 112/55/82 107/56/82
f 108/53/83 107/54/83 112/55/83
f 108/53/83 112/55/83 111/56/83
f 110/53/84 109/54/84 106/55/84
f 110/53/84 106/55/84 105/56/84
f 113/57/85 114/58/85 115/59/85
f 113/57/85 115/59/85 116/60/85
f 117/57/86 118/58/86 119/59/86
f 117/57/86 119/59/86 120/60/86
f 118/57/87 113/58/87 116/59/87
f 118/57/87 116/59/87 119/60/87
f 114/57/88 117/58/88 120/59/88
f 114/57/88 120/59/88 115/60/88
f 116/57/89 115/58/89 120/59/89
f 116/57/89 120/59/89 119/60/89
f 118/57/90 117/58/90 114/59/90
f 118/57/90 114/59/90 113/60/90
f 121/61/91 122/62/91 123/63/91
f 121/61/91 123/63/91 124/64/91
f 125/61/92 126/62/92 127/63/92
f 125/61/92 127/63/92 128/64/92
f 126/61/93 121/62/93 124/63/93
f 126/61/93 124/63/93 127/64/93
f 122/61/94 125/62/94 128/63/94
f 122/61/94 128/63/94 123/64/94
f 124/61/95 123/62/95 128/63/95
f 124/61/95 128/63/95 127/64/95
f 126/61/96 125/62/96 122/63/96
f 126/61/96 122/63/96 121/64/96
f 129/65/97 130/66/97 131/67/97
f 129/65/97 131/67/97 132/68/97
f 133/65/98 134/66/98 135/67/98
f 133/65/98 135/67/98 136/68/98
f 134/65/99 129/66/99 132/67/99
f 134/65/99 132/67/99 135/68/99
f 130/65/100 133/66/100 136/67/100
f 130/65/100 136/67/100 131/68/100
f 132/65/101 131/66/101 136/67/101
f 132/65/101 136/67/101 135/68/101
f 134/65/102 133/66/102 130/67/102
f 134/65/102 130/67/102 129/68/102
f 137/69/103 138/70/103 139/71/103
f 137/69/103 139/71/103 140/72/103
f 141/69/104 142/70/104 143/71/104
f 141/69/104 143/71/104 144/72/104
f 142/69/105 137/70/105 140/71/105
f 142/69/105 140/71/105 143/72/105
f 138/69/106 141/70/106 144/71/106
f 138/69/106 144/71/106 139/72/106
f 140/69/107 139/70/107 144/71/107
f 140/69/107 144/71/107 143/72/107
f 142/69/108 141/70/108 138/71/108
f 142/69/108 138/71/108 137/72/108
f 145/73/109 146/74/109 147/75/109
f 145/73/109 147/75/109 148/76/109
f 149/73/110 150/74/110 151/75/110
f 149/73/110 151/75/110 152/76/110
f 150/73/111 145/74/111 148/75/111
f 150/73/111 148/75/111 151/76/111
f 146/73/112 149/74/112 152/75/112
f 146/73/112 152/75/112 147/76/112
f 148/73/113 147/74/113 152/75/113
f 148/73/113 152/75/113 151/76/113
f 150/73/114 149/74/114 146/75/114
f 150/73/114 146/75/114 145/76/114
f 153/77/115 154/78/115 155/79/115
f 153/77/115 155/79/115 156/80/115
f 157/77/116 158/78/116 159/79/116
f 157/77/116 159/79/116 160/80/116
f 158/77/117 153/78/117 156/79/117
f 158/77/117 156/79/117 159/80/117
f 154/77/118 157/78/118 160/79/118
f 154/77/118 160/79/118 155/80/118
f 156/77/119 155/78/119 160/79/119
f 156/77/119 160/79/119 159/80/119
f 158/77/120 157/78/120 154/79/120
f 158/77/120 154/79/120 153/80/120
f 161/81/121 162/82/121 163/83/121
f 161/81/121 163/83/121 164/84/121
f 165/81/122 166/82/122 167/83/122
f 165/81/122 167/83/122 168/84/122
f 166/81/123 161/82/123 164/83/123
f 166/81/123 164/83/123 167/84/123
f 162/81/124 165/82/124 168/83/124
f 162/81/124 168/83/124 163/84/124
f 164/81/125 163/82/125 168/83/125
f 164/81/125 168/83/125 167/84/125
f 166/81/126 165/82/126 162/83/126
f 166/81/126 162/83/126 161/84/126
f 169/85/127 170/86/127 171/87/127
f 169/85/127 171/87/127 172/88/127
f 173/85/128 174/86/128 175/87/128
f 173/85/128 175/87/128 176/88/128
f 174/85/129 169/86/129 172/87/129
f 174/85/129 172/87/129 175/88/129
f 170/85/130 173/86/130 176/87/130
f 170/85/130 176/87/130 171/88/130
f 172/85/131 171/86/131 176/87/131
f 172/85/131 176/87/131 175/88/131
f 174/85/132 173/86/132 170/87/132
f 174/85/132 170/87/132 169/88/132
f 177/89/133 178/90/133 179/91/133
f 177/89/133 179/91/133 180/92/133
f 181/89/134 182/90/134 183/91/134
f 181/89/134 183/91/134 184/92/134
f 182/89/135 177/90/135 180/91/135
f 182/89/135 180/91/135 183/92/135
f 178/89/136 181/90/136 184/91/136
f 178/89/136 184/91/136 179/92/136
f 180/89/137 179/90/137 184/91/137
f 180/89/137 184/91/137 183/92/137
f 182/89/138 181/90/138 178/91/138
f 182/89/138 178/91/138 177/92/138
f 185/93/139 186/94/139 187/95/139
f 185/93/139 187/95/139 188/96/139
f 189/93/140 190/94/140 191/95/140
f 189/93/140 191/95/140 192/96/140
f 190/93/141 185/94/141 188/95/141
f 190/93/141 188/95/141 191/96/141
f 186/93/142 189/94/142 192/95/142
f 186/93/142 192/95/142 187/96/142
f 188/93/143 187/94/143 192/95/143
f 188/93/143 192/95/143 191/96/143
f 190/93/144 189/94/144 186/95/144
f 190/93/144 186/95/144 185/96/144
f 193/97/145 194/98/145 195/99/145
f 193/97/145 195/99/145 196/100/145
f 197/97/146 198/98/146 199/99/146
f 197/97/146 199/99/146 200/100/146
f 198/97/147 193/98/147 196/99/147
f 198/97/147 196/99/147 199/100/147
f 194/97/148 197/98/148 200/99/148
f 194/97/148 200/99/148 195/100/148
f 196/97/149 195/98/149 200/99/149
f 196/97/149 200/99/149 199/100/149
f 198/97/150 197/98/150 194/99/150
f 198/97/150 194/99/150 193/100/150
f 201/101/151 202/102/151 203/103/151
f 201/101/151 203/103/151 204/104/151
f 205/101/152 206/102/152 207/103/152
f 205/101/152 207/103/152 208/104/152
f 206/101/153 201/102/153 204/103/153
f 206/101/153 204/103/153 207/104/153
f 202/101/154 205/102/154 208/103/154
f 202/101/154 208/103/154 203/104/154
f 204/101/155 203/102/155 208/103/155
f 204/101/155 208/103/155 207/104/155
f 206/101/156 205/102/156 202/103/156
f 206/101/156 202/103/156 201/104/156
f 209/105/157 210/106/157 211/107/157
f 209/105/157 211/107/157 212/108/157
f 213/105/158 214/106/158 215/107/158
f 213/105/158 215/107/158 216/108/158
f 214/105/159 209/106/159 212/107/159
f 214/105/159 212/107/159 215/108/159
f 210/105/160 213/106/160 216/107/160
f 210/105/160 216/107/160 211/108/160
f 212/105/161 211/106/161 216/107/161
f 212/105/161 216/107/161 215/108/161
f 214/105/162 213/106/162 210/107/162
f 214/105/162 210/107/162 209/108/162
f 217/109/163 218/110/163 219/111/163
f 217/109/163 219/111/163 220/112/163
f 221/109/164 222/110/164 223/111/164
f 221/109/164 223/111/164 224/112/164
f 222/109/165 217/110/165 220/111/165
f 222/109/165 220/111/165 223/112/165
f 218/109/166 221/110/166 224/111/166
f 218/109/166 224/111/166 219/112/166
f 220/109/167 219/110/167 224/111/167
f 220/109/167 224/111/167 223/112/167
f 222/109/168 221/110/168 218/111/168
f 222/109/168 218/111/168 217/112/168
f 225/113/169 226/114/169 227/115/169
f 225/113/169 227/115/169 228/116/169
f 229/113/170 230/114/170 231/115/170
f 229/113/170 231/115/170 232/116/170
f 230/113/171 225/114/171 228/115/171
f 230/113/171 228/115/171 231/116/171
f 226/113/172 229/114/172 232/115/172
f 226/113/172 232/115/172 227/116/172
f 228/113/173 227/114/173 232/115/173
f 228/113/173 232/115/173 231/116/173
f 230/113/174 229/114/174 226/115/174
f 230/113/174 226/115/174 225/116/174
f 233/117/175 234/118/175 235/119/175
f 233/117/175 235/119/175 236/120/175
f 237/117/176 238/118/176 239/119/176
f 237/117/176 239/119/176 240/120/176
f 238/117/177 233/118/177 236/119/177
f 238/117/177 236/119/177 239/120/177
f 234/117/178 237/118/178 240/119/178
f 234/117/178 240/119/178 235/120/178
f 236/117/179 235/118/179 240/119/179
f 236/117/179 240/119/179 239/120/179
f 238/117/180 237/118/180 234/119/180
f 238/117/180 234/119/180 233/120/180
f 241/121/181 242/122/181 243/123/181
f 241/121/181 243/123/181 244/124/181
f 245/121/182 246/122/182 247/123/182
f 245/121/182 247/123/182 248/124/182
f 246/121/183 241/122/183 244/123/183
f 246/121/183 244/123/183 247/124/183
f 242/121/184 245/122/184 248/123/184
f 242/121/184 248/123/184 243/124/184
f 244/121/185 243/122/185 248/123/185
f 244/121/185 248/123/185 247/124/185
f 246/121/186 245/122/186 242/123/186
f 246/121/186 242/123/186 241/124/186
f 249/125/187 250/126/187 251/127/187
f 249/125/187 251/127/187 252/128/187
f 253/125/188 254/126/188 255/127/188
f 253/125/188 255/127/188 256/128/188
f 254/125/189 249/126/189 252/127/189
f 254/125/189 252/127/189 255/128/189
f 250/125/190 253/126/190 256/127/190
f 250/125/190 256/127/190 251/128/190
f 252/125/191 251/126/191 256/127/191
f 252/125/191 256/127/191 255/128/191
f 254/125/192 253/126/192 250/127/192
f 254/125/192 250/127/192 249/128/192
f 257/129/193 258/130/193 259/131/193
f 257/129/193 259/131/193 260/132/193
f 261/129/194 262/130/194 263/131/194
f 261/129/194 263/131/194 264/132/194
f 262/129/195 257/130/195 260/131/195
f 262/129/195 260/131/195 263/132/195
f 258/129/196 261/130/196 264/131/196
f 258/129/196 264/131/196 259/132/196
f 260/129/197 259/130/197 264/131/197
f 260/129/197 264/131/197 263/132/197
f 262/129/198 261/130/198 258/131/198
f 262/129/198 258/131/198 257/132/198
f 265/133/199 266/134/199 267/135/199
f 265/133/199 267/135/199 268/136/199
f 269/133/200 270/134/200 271/135/200
f 269/133/200 271/135/200 272/136/200
f 270/133/201 265/134/201 268/135/201
f 270/133/201 268/135/201 271/136/201
f 266/133/202 269/134/202 272/135/202
f 266/133/202 272/135/202 267/136/202
f 268/133/203 267/134/203 272/135/203
f 268/133/203 272/135/203 271/136/203
f 270/133/204 269/134/204 266/135/204
f 270/133/204 266/135/204 265/136/204
f 273/137/205 274/138/205 275/139/205
f 273/137/205 275/139/205 276/140/205
f 277/137/206 278/138/206 279/139/206
f 277/137/206 279/139/206 280/140/206
f 278/137/207 273/138/207 276/139/207
f 278/137/207 276/139/207 279/140/207
f 274/137/208 277/138/208 280/139/208
f 274/137/208 280/139/208 275/140/208
f 276/137/209 275/138/209 280/139/209
f 276/137/209 280/139/209 279/140/209
f 278/137/210 277/138/210 274/139/210
f 278/137/210 274/139/210 273/140/210
f 281/141/211 282/142/211 283/143/211
f 281/141/211 283/143/211 284/144/211
f 285/141/212 286/142/212 287/143/212
f 285/141/212 287/143/212 288/144/212
f 286/141/213 281/142/213 284/143/213
f 286/141/213 284/143/213 287/144/213
f 282/141/214 285/142/214 288/143/214
f 282/141/214 288/143/214 283/144/214
f 284/141/215 283/142/215 288/143/215
f 284/141/215 288/143/215 287/144/215
f 286/141/216 285/142/216 282/143/216
f 286/141/216 282/143/216 281/144/216
f 289/145/217 290/146/217 291/147/217
f 289/145/217 291/147/217 292/148/217
f 293/145/218 294/146/218 295/147/218
f 293/145/218 295/147/218 296/148/218
f 294/145/219 289/146/219 292/147/219
f 294/145/219 292/147/219 295/148/219
f 290/145/220 293/146/220 296/147/220
f 290/145/220 296/147/220 291/148/220
f 292/145/221 291/146/221 296/147/221
f 292/145/221 296/147/221 295/148/221
f 294/145/222 293/146/222 290/147/222
f 294/145/222 290/147/222 289/148/222
f 297/149/223 298/150/223 299/151/223
f 297/149/223 299/151/223 300/152/223
f 301/149/224 302/150/224 303/151/224
f 301/149/224 303/151/224 304/152/224
f 302/149/225 297/150/225 300/151/225
f 302/149/225 300/151/225 303/152/225
f 298/149/226 301/150/226 304/151/226
f 298/149/226 304/151/226 299/152/226
f 300/149/227 299/150/227 304/151/227
f 300/149/227 304/151/227 303/152/227
f 302/149/228 301/150/228 298/151/228
f 302/149/228 298/151/228 297/152/228
f 305/153/229 306/154/229 307/155/229
f 305/153/229 307/155/229 308/156/229
f 309/153/230 310/154/230 311/155/230
f 309/153/230 311/155/230 312/156/230
f 310/153/231 305/154/231 308/155/231
f 310/153/231 308/155/231 311/156/231
f 306/153/232 309/154/232 312/155/232
f 306/153/232 312/155/232 307/156/232
f 308/153/233 307/154/233 312/155/233
f 308/153/233 312/155/233 311/156/233
f 310/153/234 309/154/234 306/155/234
f 310/153/234 306/155/234 305/156/234
f 313/157/235 314/158/235 315/159/235
f 313/157/235 315/159/235 316/160/235
f 317/157/236 318/158/236 319/159/236
f 317/157/236 319/159/236 320/160/236
f 318/157/237 313/158/237 316/159/237
f 318/157/237 316/159/237 319/160/237
f 314/157/238 317/158/238 320/159/238
f 314/157/238 320/159/238 315/160/238
f 316/157/239 315/158/239 320/159/239
f 316/157/239 320/159/239 319/160/239
f 318/157/240 317/158/240 314/159/240
f 318/157/240 314/159/240 313/160/240
f 321/161/241 322/162/241 323/163/241
f 321/161/241 323/163/241 324/164/241
f 325/161/242 326/162/242 327/163/242
f 325/161/242 327/163/242 328/164/242
f 326/161/243 321/162/243 324/163/243
f 326/161/243 324/163/243 327/164/243
f 322/161/244 325/162/244 328/163/244
f 322/161/244 328/163/244 323/164/244
f 324/161/245 323/162/245 328/163/245
f 324/161/245 328/163/245 327/164/245
f 326/161/246 325/162/246 322/163/246
f 326/161/246 322/163/246 321/164/246
f 329/165/247 330/166/247 331/167/247
f 329/165/247 331/167/247 332/168/247
f 333/165/248 334/166/248 335/167/248
f 333/165/248 335/167/248 336/168/248
f 334/165/249 329/166/249 332/167/249
f 334/165/249 332/167/249 335/168/249
f 330/165/250 333/166/250 336/167/250
f 330/165/250 336/167/250 331/168/250
f 332/165/251 331/166/251 336/167/251
f 332/165/251 336/167/251 335/168/251
f 334/165/252 333/166/252 330/167/252
f 334/165/252 330/167/252 329/168/252
f 337/169/253 338/170/253 339/171/253
f 337/169/253 339/171/253 340/172/253
f 341/169/254 342/170/254 343/171/254
f 341/169/254 343/171/254 344/172/254
f 342/169/255 337/170/255 340/171/255
f 342/169/255 340/171/255 343/172/255
f 338/169/256 341/170/256 344/171/256
f 338/169/256 344/171/256 339/172/256
f 340/169/257 339/170/257 344/171/257
f 340/169/257 344/171/257 343/172/257
f 342/169/258 341/170/258 338/171/258
f 342/169/258 338/171/258 337/172/258
f 345/173/259 346/174/259 347/175/259
f 345/173/259 347/175/259 348/176/259
f 349/173/260 350/174/260 351/175/260
f 349/173/260 351/175/260 352/176/260
f 350/173/261 345/174/261 348/175/261
f 350/173/261 348/175/261 351/176/261
f 346/173/262 349/174/262 352/175/262
f 346/173/262 352/175/262 347/176/262
f 348/173/263 347/174/263 352/175/263
f 348/173/263 352/175/263 351/176/263
f 350/173/264 349/174/264 346/175/264
f 350/173/264 346/175/264 345/176/264
f 353/177/265 354/178/265 355/179/265
f 353/177/265 355/179/265 356/180/265
f 357/177/266 358/178/266 359/179/266
f 357/177/266 359/179/266 360/180/266
f 358/177/267 353/178/267 356/179/267
f 358/177/267 356/179/267 359/180/267
f 354/177/268 357/178/268 360/179/268
f 354/177/268 360/179/268 355/180/268
f 356/177/269 355/178/269 360/179/269
f 356/177/269 360/179/269 359/180/269
f 358/177/270 357/178/270 354/179/270
f 358/177/270 354/179/270 353/180/270
f 361/181/271 362/182/271 363/183/271
f 361/181/271 363/183/271 364/184/271
f 365/181/272 366/182/272 367/183/272
f 365/181/272 367/183/272 368/184/272
f 366/181/273 361/182/273 364/183/273
f 366/181/273 364/183/273 367/184/273
f 362/181/274 365/182/274 368/183/274
f 362/181/274 368/183/274 363/184/274
f 364/181/275 363/182/275 368/183/275
f 364/181/275 368/183/275 367/184/275
f 366/181/276 365/182/276 362/183/276
f 366/181/276 362/183/276 361/184/276
f 369/185/277 370/186/277 371/187/277
f 369/185/277 371/187/277 372/188/277
f 373/185/278 374/186/278 375/187/278
f 373/185/278 375/187/278 376/188/278
f 374/185/279 369/186/279 372/187/279
f 374/185/279 372/187/279 375/188/279
f 370/185/280 373/186/280 376/187/280
f 370/185/280 376/187/280 371/188/280
f 372/185/281 371/186/281 376/187/281
f 372/185/281 376/187/281 375/188/281
f 374/185/282 373/186/282 370/187/282
f 374/185/282 370/187/282 369/188/282
f 377/189/283 378/190/283 379/191/283
f 377/189/283 379/191/283 380/192/283
f 381/189/284 382/190/284 383/191/284
f 381/189/284 383/191/284 384/192/284
f 382/189/285 377/190/285 380/191/285
f 382/189/285 380/191/285 383/192/285
f 378/189/286 381/190/286 384/191/286
f 378/189/286 384/191/286 379/192/286
f 380/189/287 379/190/287 384/191/287
f 380/189/287 384/191/287 383/192/287
f 382/189/288 381/190/288 378/191/288
f 382/189/288 378/191/288 377/192/288
f 385/193/289 386/194/289 387/195/289
f 385/193/289 387/195/289 388/196/289
f 389/193/290 390/194/290 391/195/290
f 389/193/290 391/195/290 392/196/290
f 390/193/291 385/194/291 388/195/291
f 390/193/291 388/195/291 391/196/291
f 386/193/292 389/194/292 392/195/292
f 386/193/292 392/195/292 387/196/292
f 388/193/293 387/194/293 392/195/293
f 388/193/293 392/195/293 391/196/293
f 390/193/294 389/194/294 386/195/294
f 390/193/294 386/195/294 385/196/294
f 393/197/295 394/198/295 395/199/295
f 393/197/295 395/199/295 396/200/295
f 397/197/296 398/198/296 399/199/296
f 397/197/296 399/199/296 400/200/296
f 398/197/297 393/198/297 396/199/297
f 398/197/297 396/199/297 399/200/297
f 394/197/298 397/198/298 400/199/298
f 394/197/298 400/199/298 395/200/298
f 396/197/299 395/198/299 400/199/299
f 396/197/299 400/199/299 399/200/299
f 398/197/300 397/198/300 394/199/300
f 398/197/300 394/199/300 393/200/300
f 401/201/301 402/202/301 403/203/301
f 401/201/301 403/203/301 404/204/301
f 405/201/302 406/202/302 407/203/302
f 405/201/302 407/203/302 408/204/302
f 406/201/303 401/202/303 404/203/303
f 406/201/303 404/203/303 407/204/303
f 402/201/304 405/202/304 408/203/304
f 402/201/304 408/203/304 403/204/304
f 404/201/305 403/202/305 408/203/305
f 404/201/305 408/203/305 407/204/305
f 406/201/306 405/202/306 402/203/306
f 406/201/306 402/203/306 401/204/306
f 409/205/307 410/206/307 411/207/307
f 409/205/307 411/207/307 412/208/307
f 413/205/308 414/206/308 415/207/308
f 413/205/308 415/207/308 416/208/308
f 414/205/309 409/206/309 412/207/309
f 414/205/309 412/207/309 415/208/309
f 410/205/310 413/206/310 416/207/310
f 410/205/310 416/207/310 411/208/310
f 412/205/311 411/206/311 416/207/311
f 412/205/311 416/207/311 415/208/311
f 414/205/312 413/206/312 410/207/312
f 414/205/312 410/207/312 409/208/312
f 417/209/313 418/210/313 419/211/313
f 417/209/313 419/211/313 420/212/313
f 421/209/314 422/210/314 423/211/314
f 421/209/314 423/211/314 424/212/314
f 422/209/315 417/210/315 420/211/315
f 422/209/315 420/211/315 423/212/315
f 418/209/316 421/210/316 424/211/316
f 418/209/316 424/211/316 419/212/316
f 420/209/317 419/210/317 424/211/317
f 420/209/317 424/211/317 423/212/317
f 422/209/318 421/210/318 418/211/318
f 422/209/318 418/211/318 417/212/318
f 425/213/319 426/214/319 427/215/319
f 425/213/319 427/215/319 428/216/319
f 429/213/320 430/214/320 431/215/320
f 429/213/320 431/215/320 432/216/320
f 430/213/321 425/214/321 428/215/321
f 430/213/321 428/215/321 431/216/321
f 426/213/322 429/214/322 432/215/322
f 426/213/322 432/215/322 427/216/322
f 428/213/323 427/214/323 432/215/323
f 428/213/323 432/215/323 431/216/323
f 430/213/324 429/214/324 426/215/324
f 430/213/324 426/215/324 425/216/324
f 433/217/325 434/218/325 435/219/325
f 433/217/325 435/219/325 436/220/325
f 437/217/326 438/218/326 439/219/326
f 437/217/326 439/219/326 440/220/326
f 438/217/327 433/218/327 436/219/327
f 438/217/327 436/219/327 439/220/327
f 434/217/328 437/218/328 440/219/328
f 434/217/328 440/219/328 435/220/328
f 436/217/329 435/218/329 440/219/329
f 436/217/329 440/219/329 439/220/329
f 438/217/330 437/218/330 434/219/330
f 438/217/330 434/219/330 433/220/330
f 441/221/331 442/222/331 443/223/331
f 441/221/331 443/223/331 444/224/331
f 445/221/332 446/222/332 447/223/332
f 445/221/332 447/223/332 448/224/332
f 446/221/333 441/222/333 444/223/333
f 446/221/333 444/223/333 447/224/333
f 442/221/334 445/222/334 448/223/334
f 442/221/334 448/223/334 443/224/334
f 444/221/335 443/222/335 448/223/335
f 444/221/335 448/223/335 447/224/335
f 446/221/336 445/222/336 442/223/336
f 446/221/336 442/223/336 441/224/336
f 449/225/337 450/226/337 451/227/337
f 449/225/337 451/227/337 452/228/337
f 453/225/338 454/226/338 455/227/338
f 453/225/338 455/227/338 456/228/338
f 454/225/339 449/226/339 452/227/339
f 454/225/339 452/227/339 455/228/339
f 450/225/340 453/226/340 456/227/340
f 450/225/340 456/227/340 451/228/340
f 452/225/341 451/226/341 456/227/341
f 452/225/341 456/227/341 455/228/341
f 454/225/342 453/226/342 450/227/342
f 454/225/342 450/227/342 449/228/342
f 457/229/343 458/230/343 459/231/343
f 457/229/343 459/231/343 460/232/343
f 461/229/344 462/230/344 463/231/344
f 461/229/344 463/231/344 464/232/344
f 462/229/345 457/230/345 460/231/345
f 462/229/345 460/231/345 463/232/345
f 458/229/346 461/230/346 464/231/346
f 458/229/346 464/231/346 459/232/346
f 460/229/347 459/230/347 464/231/347
f 460/229/347 464/231/347 463/232/347
f 462/229/348 461/230/348 458/231/348
f 462/229/348 458/231/348 457/232/348
f 465/233/349 466/234/349 467/235/349
f 465/233/349 467/235/349 468/236/349
f 469/233/350 470/234/350 471/235/350
f 469/233/350 471/235/350 472/236/350
f 470/233/351 465/234/351 468/235/351
f 470/233/351 468/235/351 471/236/351
f 466/233/352 469/234/352 472/235/352
f 466/233/352 472/235/352 467/236/352
f 468/233/353 467/234/353 472/235/353
f 468/233/353 472/235/353 471/236/353
f 470/233/354 469/234/354 466/235/354
f 470/233/354 466/235/354 465/236/354
f 473/237/355 474/238/355 475/239/355
f 473/237/355 475/239/355 476/240/355
f 477/237/356 478/238/356 479/239/356
f 477/237/356 479/239/356 480/240/356
f 478/237/357 473/238/357 476/239/357
f 478/237/357 476/239/357 479/240/357
f 474/237/358 477/238/358 480/239/358
f 474/237/358 480/239/358 475/240/358
f 476/237/359 475/238/359 480/239/359
f 476/237/359 480/239/359 479/240/359
f 478/237/360 477/238/360 474/239/360
f 478/237/360 474/239/360 473/240/360
f 481/241/361 482/242/361 483/243/361
f 481/241/361 483/243/361 484/244/361
f 485/241/362 486/242/362 487/243/362
f 485/241/362 487/243/362 488/244/362
f 486/241/363 481/242/363 484/243/363
f 486/241/363 484/243/363 487/244/363
f 482/241/364 485/242/364 488/243/364
f 482/241/364 488/243/364 483/244/364
f 484/241/365 483/242/365 488/243/365
f 484/241/365 488/243/365 487/244/365
f 486/241/366 485/242/366 482/243/366
f 486/241/366 482/243/366 481/244/366
f 489/245/367 490/246/367 491/247/367
f 489/245/367 491/247/367 492/248/367
f 493/245/368 494/246/368 495/247/368
f 493/245/368 495/247/368 496/248/368
f 494/245/369 489/246/369 492/247/369
f 494/245/369 492/247/369 495/248/369
f 490/245/370 493/246/370 496/247/370
f 490/245/370 496/247/370 491/248/370
f 492/245/371 491/246/371 496/247/371
f 492/245/371 496/247/371 495/248/371
f 494/245/372 493/246/372 490/247/372
f 494/245/372 490/247/372 489/248/372
f 497/249/373 498/250/373 499/251/373
f 497/249/373 499/251/373 500/252/373
f 501/249/374 502/250/374 503/251/374
f 501/249/374 503/251/374 504/252/374
f 502/249/375 497/250/375 500/251/375
f 502/249/375 500/251/375 503/252/375
f 498/249/376 501/250/376 504/251/376
f 498/249/376 504/251/376 499/252/376
f 500/249/377 499/250/377 504/251/377
f 500/249/377 504/251/377 503/252/377
f 502/249/378 501/250/378 498/251/378
f 502/249/378 498/251/378 497/252/378
f 505/253/379 506/254/379 507/255/379
f 505/253/379 507/255/379 508/256/379
f 509/253/380 510/254/380 511/255/380
f 509/253/380 511/255/380 512/256/380
f 510/253/381 505/254/381 508/255/381
f 510/253/381 508/255/381 511/256/381
f 506/253/382 509/254/382 512/255/382
f 506/253/382 512/255/382 507/256/382
f 508/253/383 507/254/383 512/255/383
f 508/253/383 512/255/383 511/256/383
f 510/253/384 509/254/384 506/255/384
f 510/253/384 506/255/384 505/256/384
f 513/257/385 514/258/385 515/259/385
f 513/257/385 515/259/385 516/260/385
f 517/257/386 518/258/386 519/259/386
f 517/257/386 519/259/386 520/260/386
f 518/257/387 513/258/387 516/259/387
f 518/257/387 516/259/387 519/260/387
f 514/257/388 517/258/388 520/259/388
f 514/257/388 520/259/388 515/260/388
f 516/257/389 515/258/389 520/259/389
f 516/257/389 520/259/389 519/260/389
f 518/257/390 517/258/390 514/259/390
f 518/257/390 514/259/390 513/260/390
f 521/261/391 522/262/391 523/263/391
f 521/261/391 523/263/391 524/264/391
f 525/261/392 526/262/392 527/263/392
f 525/261/392 527/263/392 528/264/392
f 526/261/393 521/262/393 524/263/393
f 526/261/393 524/263/393 527/264/393
f 522/261/394 525/262/394 528/263/394
f 522/261/394 528/263/394 523/264/394
f 524/261/395 523/262/395 528/263/395
f 524/261/395 528/263/395 527/264/395
f 526/261/396 525/262/396 522/263/396
f 526/261/396 522/263/396 521/264/396
g trailer_bumper
usemtl trailer_bumper
f 529/265/397 530/266/397 531/267/397
f 529/265/397 531/267/397 532/268/397
f 533/265/398 534/266/398 535/267/398
f 533/265/398 535/267/398 536/268/398
f 534/265/399 529/266/399 532/267/399
f 534/265/399 532/267/399 535/268/399
f 530/265/400 533/266/400 536/267/400
f 530/265/400 536/267/400 531/268/400
f 532/265/401 531/266/401 536/267/401
f 532/265/401 536/267/401 535/268/401
f 534/265/402 533/266/402 530/267/402
f 534/265/402 530/267/402 529/268/402
